<svg version="1.1" id="Layer_1" xmlns="http://www.w3.org/2000/svg" xmlns:xlink="http://www.w3.org/1999/xlink" x="0px" y="0px"
	 width="100%" viewBox="0 0 500 500" enable-background="new 0 0 500 500" xml:space="preserve">
<path fill="none" opacity="1.000000" stroke="#000000" stroke-linecap="round" stroke-linejoin="round" stroke-width="7.000000"
	d="
M251.000000,192.000000 
	C245.468994,188.412155 240.213104,184.377136 233.507080,182.966370 
	C222.512039,180.653290 211.801666,181.696991 200.971588,184.385529 
	C191.977280,186.618317 183.350281,189.891113 174.524796,192.581329 
	C170.953720,193.669876 167.863892,191.891541 164.499130,191.948715 
	C157.084808,192.074677 154.053802,194.946762 154.011307,202.500061 
	C153.962555,211.166458 154.000000,219.833328 154.000000,228.500000 
	C154.000000,254.166672 153.997177,279.833344 154.001602,305.500000 
	C154.003082,314.064178 156.683731,316.557556 164.996414,317.059296 
	C181.820068,318.074860 198.665558,318.444397 215.491028,319.199921 
	C228.488892,319.783539 241.522491,321.025146 254.496277,320.792389 
	C271.492462,320.487457 288.524200,319.773132 305.481018,318.699951 
	C316.315979,318.014221 327.181702,318.489349 338.032898,317.300262 
	C343.793030,316.669098 348.038452,312.898743 348.010803,306.999939 
	C347.969360,298.166809 348.000000,289.333344 348.000000,280.500000 
	C348.000000,254.833328 347.968292,229.166611 348.018280,203.500031 
	C348.034424,195.215820 344.954407,190.124847 335.060608,192.278412 
	C329.991089,193.381866 325.590637,192.354095 321.577393,190.800110 
	C309.553894,186.144440 297.306274,182.495071 284.490875,181.636261 
	C273.558289,180.903625 263.008728,182.798050 253.937500,189.920410 
	C251.559265,191.787689 250.933289,193.659363 250.940552,196.500153 
	C251.031311,231.999924 251.000000,267.500000 251.000000,303.000000 
"/>
<path fill="none" opacity="1.000000" stroke="#000000" stroke-linecap="round" stroke-linejoin="round" stroke-width="8.000000"
	d="
M374.000000,179.000000 
	C377.617065,182.051926 379.039398,186.479599 380.947144,190.524933 
	C387.419678,204.249557 393.907318,217.870331 397.211517,232.953659 
	C400.574921,248.307129 400.808899,263.473816 399.743164,279.016663 
	C399.144989,287.741241 397.417236,295.955231 394.455200,303.983459 
	C387.052612,324.047455 375.282471,341.089386 358.450348,354.437408 
	C357.198517,355.430115 355.537903,357.022827 353.500000,355.500000 
"/>
<path fill="none" opacity="1.000000" stroke="#000000" stroke-linecap="round" stroke-linejoin="round" stroke-width="8.000000"
	d="
M156.000000,357.000000 
	C165.290482,370.364777 177.814194,379.857269 191.971130,387.553101 
	C201.969101,392.988159 212.477661,397.779694 223.543060,399.153046 
	C236.861038,400.805939 250.401031,401.063965 264.022278,399.727081 
	C286.659454,397.505371 306.408844,387.690704 326.466614,378.427673 
	C328.548615,377.466156 330.166656,375.500000 332.000000,374.000000 
"/>
<path fill="none" opacity="1.000000" stroke="#000000" stroke-linecap="round" stroke-linejoin="round" stroke-width="8.000000"
	d="
M148.500000,155.500000 
	C145.859741,155.102005 143.870667,156.558105 142.019348,158.024445 
	C129.086975,168.267471 119.595978,181.193130 112.479996,195.990387 
	C108.472694,204.323318 105.391762,212.885834 103.264717,221.944763 
	C102.155029,226.670853 102.149384,231.435532 101.782532,236.022598 
	C100.011574,258.166534 102.962296,279.836060 111.556343,300.476532 
	C114.877762,308.453644 118.830170,316.168152 122.501617,323.999237 
	C123.893196,326.967438 125.484245,329.802490 128.000000,332.000000 
"/>
<path fill="none" opacity="1.000000" stroke="#000000" stroke-linecap="round" stroke-linejoin="round" stroke-width="7.000000"
	d="
M171.000000,194.000000 
	C169.661087,195.832397 170.006500,197.952133 170.005936,200.000000 
	C169.997391,231.333328 170.026047,262.666718 169.960648,293.999908 
	C169.953934,297.215302 170.066849,300.281433 172.274307,302.960266 
	C175.991287,303.311554 179.676788,302.945129 182.031448,299.018860 
	C182.633118,298.015594 183.809433,297.766449 184.986908,297.451111 
	C197.622467,294.067047 210.293747,290.318512 223.489990,291.157471 
	C232.842712,291.752045 241.920013,294.157043 247.000000,303.500000 
"/>
<path fill="none" opacity="1.000000" stroke="#000000" stroke-linecap="round" stroke-linejoin="round" stroke-width="7.000000"
	d="
M331.000000,194.000000 
	C332.338898,195.832397 331.993500,197.952133 331.994049,200.000000 
	C332.002594,231.333328 331.973999,262.666718 332.039398,293.999908 
	C332.046082,297.215302 331.933167,300.281433 329.725677,302.960266 
	C326.008728,303.311554 322.323212,302.945129 319.968567,299.018860 
	C319.366913,298.015594 318.191406,297.765137 317.012970,297.451355 
	C304.374359,294.085999 291.737244,290.293671 278.507385,291.118439 
	C269.057434,291.707550 260.106201,294.206329 255.000000,303.500000 
"/>
<path fill="none" opacity="1.000000" stroke="#000000" stroke-linecap="round" stroke-linejoin="round" stroke-width="8.000000"
	d="
M347.000000,155.500000 
	C338.087463,142.057159 325.890198,132.231720 311.956421,124.579323 
	C301.637512,118.912170 290.726318,114.689980 279.043365,112.288963 
	C274.339325,111.322212 269.558868,111.085869 264.981354,110.771568 
	C242.185089,109.206329 219.995636,112.434128 199.004761,122.010422 
	C191.475143,125.445518 184.004333,129.009323 176.497513,132.494644 
	C174.066116,133.623505 171.746338,134.892853 170.000000,137.000000 
"/>
<path fill="none" opacity="1.000000" stroke="#000000" stroke-linecap="round" stroke-linejoin="round" stroke-width="7.000000"
	d="
M180.500000,302.000000 
	C182.690506,303.827301 185.254883,304.121063 188.000763,304.020905 
	C197.666672,303.668518 207.320984,304.088531 217.020432,303.231201 
	C224.431686,302.576141 232.065628,303.514343 239.513397,304.929474 
	C240.738831,305.162384 242.112793,305.062317 243.529938,304.589783 
	C248.452408,302.948181 253.427475,303.771790 258.519806,304.314178 
	C263.931763,304.890625 269.555573,304.388153 274.980194,303.611633 
	C278.514557,303.105743 282.090637,302.558228 285.481567,303.112732 
	C295.312988,304.720276 305.170471,303.570740 314.998596,304.029999 
	C317.477051,304.145782 319.572357,303.443451 321.500000,302.000000 
"/>
<path fill="none" opacity="1.000000" stroke="#000000" stroke-linecap="round" stroke-linejoin="round" stroke-width="8.000000"
	d="
M202.000000,155.000000 
	C194.804825,147.856323 185.638138,145.577377 175.996216,144.534973 
	C174.996841,144.426926 174.299210,144.152176 173.466263,143.546387 
	C168.117126,139.656113 161.938065,138.673294 155.500000,138.750000 
"/>
<path fill="none" opacity="1.000000" stroke="#000000" stroke-linecap="round" stroke-linejoin="round" stroke-width="8.000000"
	d="
M146.000000,300.000000 
	C139.505753,305.291412 137.877609,312.999878 136.062790,320.515167 
	C134.884430,325.394806 134.013275,330.154266 131.223541,334.639038 
	C129.514282,337.386841 130.000000,341.500000 129.500000,345.000000 
"/>
<path fill="none" opacity="1.000000" stroke="#000000" stroke-linecap="round" stroke-linejoin="round" stroke-width="8.000000"
	d="
M300.000000,356.000000 
	C305.276276,362.525299 313.010742,364.102325 320.515900,365.934875 
	C325.391693,367.125427 330.154266,367.986755 334.639038,370.776459 
	C337.386841,372.485718 341.500000,371.999969 345.000000,372.499969 
"/>
<path fill="none" opacity="1.000000" stroke="#000000" stroke-linecap="round" stroke-linejoin="round" stroke-width="8.000000"
	d="
M372.000000,173.000000 
	C366.910248,181.661636 366.192810,191.727707 363.021606,201.007385 
	C361.639252,205.052399 359.069305,208.181854 356.000000,211.000000 
"/>
<path fill="none" opacity="1.000000" stroke="#000000" stroke-linecap="round" stroke-linejoin="round" stroke-width="10.000000"
	d="
M177.000000,110.500000 
	C176.965012,113.575241 174.874512,115.408951 173.042587,117.536659 
	C167.130524,124.403252 161.287704,131.382507 163.250000,141.500000 
"/>
<path fill="none" opacity="1.000000" stroke="#000000" stroke-linecap="round" stroke-linejoin="round" stroke-width="10.000000"
	d="
M400.500000,186.000000 
	C397.660126,186.083557 395.955170,184.179901 393.958679,182.550613 
	C390.269867,179.540207 386.415588,176.712173 382.474731,174.037201 
	C379.145996,171.777710 375.354736,171.620834 371.500000,172.500000 
"/>
<path fill="none" opacity="1.000000" stroke="#000000" stroke-linecap="round" stroke-linejoin="round" stroke-width="10.000000"
	d="
M339.000000,372.500000 
	C339.728760,379.845306 335.652069,385.129852 331.566284,390.549988 
	C329.186493,393.706970 325.046906,395.788818 325.000000,400.500000 
"/>
<path fill="none" opacity="1.000000" stroke="#000000" stroke-linecap="round" stroke-linejoin="round" stroke-width="10.000000"
	d="
M133.500000,339.250000 
	C132.343964,339.624176 131.273621,338.417114 130.523331,338.597198 
	C122.528160,340.516113 117.198006,335.690399 111.460876,331.554260 
	C108.246773,329.237091 106.211182,325.046906 101.500000,325.000000 
"/>
</svg>